<?xml version="1.0" encoding="utf-8"?>
<!-- Generator: Adobe Illustrator 16.0.0, SVG Export Plug-In . SVG Version: 6.00 Build 0)  -->
<!DOCTYPE svg PUBLIC "-//W3C//DTD SVG 1.1//EN" "http://www.w3.org/Graphics/SVG/1.1/DTD/svg11.dtd">
<svg version="1.1" id="Layer_1" xmlns="http://www.w3.org/2000/svg" xmlns:xlink="http://www.w3.org/1999/xlink" x="0px" y="0px"
	 width="595.28px" height="595.28px" viewBox="0 0 595.28 595.28" enable-background="new 0 0 595.28 595.28" xml:space="preserve">
<g>
	<path fill="#2CA9C6" d="M451.938,361.012c0,10.535-8.619,19.154-19.154,19.154H163.071c-10.534,0-19.153-8.619-19.153-19.154
		V34.053c0-10.535,8.62-19.154,19.153-19.154h269.712c10.535,0,19.154,8.62,19.154,19.154V361.012z"/>
</g>
<path fill="#FFFFFF" d="M410.334,69.025H185.521c-4.17,0-7.552-3.381-7.552-7.552c0-4.171,3.382-7.552,7.552-7.552h224.812
	c4.172,0,7.552,3.382,7.552,7.552C417.886,65.643,414.506,69.025,410.334,69.025z"/>
<path fill="#FFFFFF" d="M307.942,111.861h-125.75c-2.332,0-4.224-3.381-4.224-7.552s1.892-7.552,4.224-7.552h125.75
	c2.333,0,4.224,3.381,4.224,7.552S310.275,111.861,307.942,111.861z"/>
<path fill="#FFFFFF" d="M306.486,154.697H183.648c-3.136,0-5.679-3.381-5.679-7.552s2.543-7.552,5.679-7.552h122.838
	c3.139,0,5.68,3.381,5.68,7.552S309.625,154.697,306.486,154.697z"/>
<path fill="#FFFFFF" d="M410.336,197.532H185.521c-4.17,0-7.552-3.381-7.552-7.552s3.382-7.552,7.552-7.552h224.814
	c4.17,0,7.55,3.381,7.55,7.552S414.506,197.532,410.336,197.532z"/>
<path fill="#FFFFFF" d="M410.336,240.368H185.521c-4.17,0-7.552-3.381-7.552-7.552s3.382-7.552,7.552-7.552h224.814
	c4.17,0,7.55,3.381,7.55,7.552S414.506,240.368,410.336,240.368z"/>
<path fill="#FFFFFF" d="M372.326,283.204H185.521c-4.17,0-7.552-3.381-7.552-7.552c0-4.171,3.382-7.552,7.552-7.552h186.805
	c4.174,0,7.555,3.381,7.555,7.552C379.881,279.823,376.5,283.204,372.326,283.204z"/>
<g>
	<path fill="#2CA9C6" d="M530.026,356.066c8.131-8.123,5.38-14.77-6.112-14.77H71.941c-11.492,0-14.247,6.65-6.12,14.775
		l217.203,217.203c8.126,8.127,21.428,8.131,29.56,0.008L530.026,356.066z"/>
</g>
<g>
	<path fill="#FFFFFF" d="M417.886,147.731c0,3.831-3.136,6.965-6.965,6.965h-67.014c-3.83,0-6.965-3.134-6.965-6.965v-44.009
		c0-3.831,3.135-6.965,6.965-6.965h67.014c3.829,0,6.965,3.134,6.965,6.965V147.731z"/>
</g>
</svg>
